# AST/ASF file generated using VICON BodyLanguage
# -----------------------------------------------
:version 1.10
:name VICON
:units
  mass 1.0
  length 0.45
  angle deg
:documentation
   .ast/.asf automatically generated from VICON data using
   VICON BodyBuilder and BodyLanguage model FoxedUp or BRILLIANT.MOD
:root
   order TX TY TZ RX RY RZ
   axis XYZ
   position 0 0 0  
   orientation 0 0 0 
:bonedata
  begin
     id 1 
     name lhipjoint
     direction 0.521689 -0.742065 0.420928 
     length 2.47002 
     axis 0 0 0  XYZ
  end
  begin
     id 2 
     name lfemur
     direction 0.34202 -0.939693 0  
     length 7.24654  
     axis 0 0 20  XYZ
    dof rx ry rz
    limits (-160.0 20.0)
           (-70.0 70.0)
           (-60.0 70.0)
  end
  begin
     id 3 
     name ltibia
     direction 0.34202 -0.939693 0   
     length 8.04849   
     axis 0 0 20   XYZ
    dof rx
    limits (-10.0 170.0)
  end
  begin
     id 4 
     name lfoot
     direction 0.0745411 -0.2048 0.975961   
     length 1.72367   
     axis -90 7.62852e-016 20   XYZ
    dof rx rz
    limits (-45.0 90.0)
           (-70.0 20.0)
  end
  begin
     id 5 
     name ltoes
     direction 1.53556e-011 -4.21901e-011 1   
     length 0.87311   
     axis -90 7.62852e-016 20   XYZ
    dof rx
    limits (-90.0 20.0)
  end
  begin
     id 6 
     name rhipjoint
     direction -0.52849 -0.738415 0.418857   
     length 2.48223  
     axis 0 0 0  XYZ 
  end
  begin
     id 7 
     name rfemur
     direction -0.34202 -0.939693 0   
     length 7.15571   
     axis 0 0 -20   XYZ
    dof rx ry rz
    limits (-160.0 20.0)
           (-70.0 70.0)
           (-70.0 60.0)
  end
  begin
     id 8 
     name rtibia
     direction -0.34202 -0.939693 0   
     length 7.81659   
     axis 0 0 -20   XYZ
    dof rx
    limits (-10.0 170.0)
 end
 begin
     id 9 
     name rfoot
     direction -0.0917348 -0.252039 0.963359   
     length 1.84382  
     axis -90 -7.62852e-016 -20   XYZ
    dof rx rz
    limits (-45.0 90.0)
           (-20.0 70.0)
  end
  begin
     id 10 
     name rtoes
     direction -1.53551e-011 -4.21879e-011 1   
     length 0.927771   
     axis -90 -7.62852e-016 -20   XYZ
    dof rx
    limits (-90.0 20.0)
  end
  begin
     id 11 
     name lowerback
     direction 0.00583058 0.999822 0.0179296   
     length 2.1429   
     axis 0 0 0   XYZ
    dof rx ry rz
    limits (-20.0 45.0)
           (-30.0 30.0)
           (-30.0 30.0)
  end
  begin
     id 12 
     name upperback
     direction -0.0137999 0.999752 -0.0175071   
     length 2.14252   
     axis 0 0 0   XYZ
    dof rx ry rz
    limits (-20.0 45.0)
           (-30.0 30.0)
           (-30.0 30.0)
  end
  begin
     id 13 
     name thorax
     direction -0.0158036 0.99955 -0.0254909   
     length 2.1383   
     axis 0 0 0   XYZ
    dof rx ry rz
    limits (-20.0 45.0)
           (-30.0 30.0)
           (-30.0 30.0)
  end
  begin
     id 14 
     name lowerneck
     direction -0.0101179 0.999403 -0.0330262   
     length 1.65808   
     axis 0 0 0   XYZ
    dof rx ry rz
    limits (-20.0 45.0)
           (-30.0 30.0)
           (-30.0 30.0)
  end
  begin
     id 15 
     name upperneck
     direction 0.0497734 0.995978 -0.074501   
     length 1.5897   
     axis 0 0 0   XYZ
    dof rx ry rz
    limits (-20.0 45.0)
           (-30.0 30.0)
           (-30.0 30.0)
  end
  begin
     id 16
     name head
     direction 0.0189524 0.999519 -0.0245438  
     length 1.74024  
     axis 0 0 0   XYZ
    dof rx ry rz
    limits (-20.0 45.0)
           (-30.0 30.0)
           (-30.0 30.0)
  end
  begin
     id 17 
     name lclavicle
     direction 0.945604 0.324422 0.0241537  
     length 3.59089  
     axis 0 0 0   XYZ
    dof ry rz
    limits (-20.0 10.0)
           (0.0 20.0)
  end
  begin
     id 18 
     name lhumerus
     direction 1 -4.48964e-011 -2.63524e-027   
     length 5.2391   
     axis 180 -30 -90   XYZ
    dof rx ry rz
    limits (-60.0 90.0)
           (-90.0 90.0)
           (-90.0 90.0)
  end
  begin
     id 19
     name lradius
     direction 1 -4.48969e-011 3.86978e-028   
     length 3.31467   
     axis 180 -30 -90   XYZ
    dof rx
    limits (-10.0 170.0)
  end
  begin
     id 20
     name lwrist
     direction 1 -4.48963e-011 7.20928e-028   
     length 1.65734   
     axis -5.52449e-016 90 90   XYZ
    dof ry
    limits (-180.0 0.0)
 end
  begin
     id 21 
     name lhand
     direction 1 -4.48964e-011 1.44186e-027   
     length 0.9659   
     axis -9.20027e-016 90 90   XYZ
    dof rx rz
    limits (-90.0 90.0)
           (-45.0 45.0)
  end
  begin
     id 22 
     name lfingers
     direction 1 -4.48965e-011 2.88371e-027   
     length 0.778733   
     axis -1.84005e-015 90 90   XYZ
    dof rx
    limits (0.0 90.0)
  end
  begin
     id 23
     name lthumb
     direction 0.707107 -6.34931e-011 0.707107   
     length 1.11811   
     axis -90 45 2.85299e-015   XYZ
    dof rx rz
    limits (-45.0 45.0)
           (-45.0 45.0)
  end
  begin
     id 24 
     name rclavicle
     direction -0.923762 0.370785 0.0958234   
     length 3.54196  
     axis 0 0 0   XYZ 
    dof ry rz
    limits (-10.0 20.0)
           (-20.0 0.0)
  end
  begin
     id 25 
     name rhumerus
     direction -1 -4.48966e-011 1.18702e-017  
     length 5.30252   
     axis 180 30 90   XYZ
    dof rx ry rz
    limits (-90.0 60.0)
           (-90.0 90.0)
           (-90.0 90.0)
  end
  begin
     id 26 
     name rradius
     direction -1 -4.48966e-011 4.46736e-027   
     length 3.67875   
     axis 180 30 90   XYZ
    dof rx
    limits (-10.0 170.0)
  end
  begin
     id 27 
     name rwrist
     direction -1 -4.48966e-011 7.20928e-028   
     length 1.83937   
     axis -5.52449e-016 -90 -90   XYZ
    dof ry
    limits (-180.0 0.0)
  end
  begin
     id 28
     name rhand
     direction -1 -4.48973e-011 1.44186e-027   
     length 0.594811   
     axis -9.20027e-016 -90 -90   XYZ
    dof rx rz
    limits (-90.0 90.0)
           (-45.0 45.0)
  end
  begin
     id 29
     name rfingers
     direction -1 -4.48963e-011 2.88371e-027   
     length 0.479552   
     axis -1.84005e-015 -90 -90   XYZ
    dof rx
    limits (0.0 90.0)
  end
  begin
     id 30
     name rthumb
     direction -0.707107 -6.34932e-011 0.707107   
     length 0.688544   
     axis -90 -45 -2.85299e-015   XYZ
    dof rx rz
    limits (-45.0 45.0)
           (-45.0 45.0)
  end
:hierarchy
  begin
    root lhipjoint rhipjoint lowerback
    lhipjoint lfemur
    lfemur ltibia
    ltibia lfoot
    lfoot ltoes
    rhipjoint rfemur
    rfemur rtibia
    rtibia rfoot
    rfoot rtoes
    lowerback upperback
    upperback thorax
    thorax lowerneck lclavicle rclavicle
    lowerneck upperneck
    upperneck head
    lclavicle lhumerus
    lhumerus lradius
    lradius lwrist
    lwrist lhand lthumb
    lhand lfingers
    rclavicle rhumerus
    rhumerus rradius
    rradius rwrist
    rwrist rhand rthumb
    rhand rfingers
  end

#!OML:ASF E:\acrobat2\Project_11_07_03\Capture day 1\Session 1\Acrobat.ASF
:FULLY-SPECIFIED
:DEGREES
719
root 11.0117 18.2903 25.9674 377.372 -81.7988 -11.52
lowerback -7.79804 0.449819 1.31153
upperback -3.13843 0.448751 -1.30729
thorax 1.15029 0.176644 -2.04591
lowerneck -0.507338 -2.75574 -1.81024
upperneck 1.80858 -3.78832 5.3669
head 0.79545 -1.87616 1.94862
rclavicle 2.78299e-015 1.59028e-015
rhumerus -17.18 -42.5379 -1.27124
rradius 20.8753
rwrist 11.3331
rhand -17.1367 -51.5722
rfingers 7.12502
rthumb 9.10342 278.644
lclavicle 2.78299e-015 1.59028e-015
lhumerus 5.44343 17.947 6.2198
lradius 21.3372
lwrist 6.58334
lhand -14.1214 -5.42037
lfingers 7.12502
lthumb 12.0121 24.2149
rfemur 14.1367 20.146 7.70399
rtibia -4.48003
rfoot -38.299 -29.8865
rtoes 42.6853
lfemur 9.22732 -11.0501 -8.24837
ltibia -4.08442
lfoot -197.312 179.161
ltoes 40.8748
720
root 10.9974 18.2825 25.9414 376.31 -82.0168 -10.4224
lowerback -7.94144 0.493999 1.11516
upperback -3.12831 0.521206 -1.41497
thorax 1.2426 0.213588 -2.03961
lowerneck -0.612221 -2.77618 -1.76809
upperneck 1.8419 -3.8196 5.43145
head 0.825743 -1.88948 1.96016
rclavicle 1.27222e-014 0
rhumerus -17.2317 -43.2344 -1.20583
rradius 20.776
rwrist 12.1247
rhand -16.7977 -51.6943
rfingers 7.12502
rthumb 9.43055 278.537
lclavicle 1.27222e-014 0
lhumerus 5.5338 17.8444 6.14617
lradius 21.3433
lwrist 6.69406
lhand -14.1362 -5.39848
lfingers 7.12502
lthumb 11.9977 24.2377
rfemur 14.0654 20.0547 7.52786
rtibia -4.37382
rfoot -37.8517 -29.8916
rtoes 41.5117
lfemur 9.22513 -10.6869 -8.30623
ltibia -3.99492
lfoot -197.094 178.95
ltoes 41.4427
721
root 10.9847 18.274 25.9164 375.162 -82.1407 -9.238
lowerback -8.05885 0.470713 0.93922
upperback -3.1296 0.502595 -1.49592
thorax 1.3046 0.204539 -2.02538
lowerneck -0.66656 -2.74709 -1.70101
upperneck 1.88975 -3.77964 5.30302
head 0.843703 -1.86832 1.90621
rclavicle -6.4605e-016 -1.59028e-015
rhumerus -17.2252 -41.9258 -1.44016
rradius 21.0279
rwrist 10.9041
rhand -16.5267 -51.8959
rfingers 7.12502
rthumb 9.69203 278.347
lclavicle -6.4605e-016 -1.59028e-015
lhumerus 5.66418 18.6484 6.31478
lradius 21.1478
lwrist 5.84037
lhand -13.9444 -5.53804
lfingers 7.12502
lthumb 12.1827 24.0872
rfemur 14.0892 20.1813 7.47138
rtibia -4.34576
rfoot -37.6564 -30.1933
rtoes 39.6251
lfemur 9.1925 -10.5275 -8.39431
ltibia -3.88512
lfoot -197.079 178.725
ltoes 41.6989
722
root 10.973 18.2636 25.8931 373.805 -82.2135 -7.82286
lowerback -8.17704 0.360876 0.732714
upperback -3.16996 0.369842 -1.56929
thorax 1.32183 0.137384 -1.99679
lowerneck -0.508772 -2.67663 -1.41265
upperneck 1.843 -3.67761 4.93913
head 0.782886 -1.82028 1.74138
rclavicle 6.95746e-015 3.18055e-015
rhumerus -17.0235 -40.284 -2.00444
rradius 21.2967
rwrist 9.33335
rhand -16.7361 -51.9699
rfingers 7.12502
rthumb 9.48997 278.264
lclavicle 6.95746e-015 3.18055e-015
lhumerus 5.41309 18.3658 5.98464
lradius 21.2127
lwrist 6.13578
lhand -14.0685 -5.48078
lfingers 7.12502
lthumb 12.0631 24.1515
rfemur 14.166 20.4495 7.46669
rtibia -4.29512
rfoot -38.5726 -29.5338
rtoes 39.7298
lfemur 9.17696 -10.7422 -8.5993
ltibia -3.85916
lfoot -197.304 178.657
ltoes 41.9441
723
root 10.9619 18.2487 25.8646 371.632 -82.266 -5.61542
lowerback -8.24664 0.210301 0.335397
upperback -3.21224 0.197889 -1.65778
thorax 1.3087 0.0512669 -1.88028
lowerneck -0.35576 -2.60912 -1.19639
upperneck 1.76486 -3.58247 4.75873
head 0.720352 -1.77549 1.64896
rclavicle -3.8763e-015 8.74653e-015
rhumerus -16.5612 -40.2787 -2.51352
rradius 21.1223
rwrist 9.36929
rhand -17.0518 -51.6208
rfingers 7.12502
rthumb 9.18536 278.599
lclavicle -3.8763e-015 8.74653e-015
lhumerus 4.93246 16.967 5.29152
lradius 21.6096
lwrist 7.50983
lhand -14.3034 -5.07374
lfingers 7.12502
lthumb 11.8365 24.5717
rfemur 14.2187 20.4315 7.29216
rtibia -4.20497
rfoot -38.8069 -29.3293
rtoes 38.9347
lfemur 9.15835 -10.8626 -8.87532
ltibia -3.81105
lfoot -197.35 178.494
ltoes 42.6216
724
root 10.9498 18.2355 25.8358 370.879 -82.3297 -4.89502
lowerback -8.30079 0.215707 0.166723
upperback -3.17493 0.219676 -1.68175
thorax 1.37734 0.0635315 -1.80811
lowerneck -0.43429 -2.59592 -1.47624
upperneck 1.7913 -3.56941 5.0259
head 0.753759 -1.76789 1.78286
rclavicle -2.18663e-015 -2.78299e-014
rhumerus -16.614 -39.0557 -2.66361
rradius 21.2326
rwrist 8.16024
rhand -17.0739 -51.4883
rfingers 7.12502
rthumb 9.16407 278.731
lclavicle -2.18663e-015 -2.78299e-014
lhumerus 5.13488 17.6412 5.54833
lradius 21.5208
lwrist 6.8322
lhand -14.0668 -4.93766
lfingers 7.12502
lthumb 12.0647 24.6945
rfemur 14.2273 20.1923 7.27348
rtibia -4.14876
rfoot -38.0159 -30.0342
rtoes 36.5843
lfemur 9.21031 -10.7707 -8.87801
ltibia -3.74579
lfoot -197.332 178.224
ltoes 43.2011
725
root 10.9375 18.2262 25.8111 370.468 -82.4555 -4.47161
lowerback -8.34559 0.330955 0.0632155
upperback -3.1759 0.380723 -1.66005
thorax 1.40555 0.144599 -1.71228
lowerneck -0.641885 -2.66438 -1.87498
upperneck 2.00417 -3.66865 5.23191
head 0.873294 -1.81314 1.91533
rclavicle 1.92821e-014 -6.36111e-015
rhumerus -16.8444 -40.7744 -2.0012
rradius 21.0026
rwrist 9.90836
rhand -16.8499 -51.4357
rfingers 7.12502
rthumb 9.3802 278.793
lclavicle 1.92821e-014 -6.36111e-015
lhumerus 5.98318 20.7726 6.81865
lradius 20.7916
lwrist 3.63809
lhand -13.4898 -5.48322
lfingers 7.12502
lthumb 12.621 24.1155
rfemur 14.1292 19.824 7.1965
rtibia -4.05249
rfoot -37.3965 -30.2247
rtoes 34.9263
lfemur 9.2464 -10.5527 -8.84229
ltibia -3.69848
lfoot -197.241 177.977
ltoes 43.518
726
root 10.9231 18.2146 25.7859 368.332 -82.5512 -2.30787
lowerback -8.34035 0.318856 -0.282786
upperback -3.24712 0.387908 -1.70552
thorax 1.32726 0.147732 -1.56394
lowerneck -0.713159 -2.67019 -1.92345
upperneck 2.17709 -3.67842 5.1089
head 0.938229 -1.81608 1.88247
rclavicle -2.31584e-014 7.15625e-015
rhumerus -16.8082 -41.0025 -1.81805
rradius 20.8814
rwrist 10.2477
rhand -16.9678 -51.5113
rfingers 7.12502
rthumb 9.26644 278.712
lclavicle -2.31584e-014 7.15625e-015
lhumerus 5.44623 18.4787 6.11195
lradius 21.3586
lwrist 6.01816
lhand -13.7188 -5.19246
lfingers 7.12502
lthumb 12.4002 24.4197
rfemur 14.1245 19.5092 6.87872
rtibia -4.02148
rfoot -37.0588 -30.1446
rtoes 33.429
lfemur 9.27981 -10.2812 -9.05736
ltibia -3.68612
lfoot -196.939 177.966
ltoes 43.2215
727
root 10.9086 18.2015 25.7567 366.4 -82.5322 -0.373122
lowerback -8.37534 0.237137 -0.559417
upperback -3.27677 0.29957 -1.79244
thorax 1.31253 0.103332 -1.50633
lowerneck -0.617391 -2.57938 -1.92107
upperneck 2.13644 -3.55662 5.1246
head 0.904701 -1.75696 1.89004
rclavicle 2.03754e-014 -8.74653e-015
rhumerus -16.7068 -41.1995 -1.92711
rradius 20.8004
rwrist 10.5359
rhand -17.2094 -51.3213
rfingers 7.12502
rthumb 9.03327 278.892
lclavicle 2.03754e-014 -8.74653e-015
lhumerus 5.16358 17.2586 5.6157
lradius 21.6187
lwrist 7.39067
lhand -14.0001 -5.04752
lfingers 7.12502
lthumb 12.129 24.5809
rfemur 14.2966 19.6871 6.83701
rtibia -4.03951
rfoot -37.6968 -29.7666
rtoes 33.0161
lfemur 9.29665 -10.0651 -9.18668
ltibia -3.66708
lfoot -196.654 178.208
ltoes 42.2494
728
root 10.8967 18.1903 25.7268 365.453 -82.5297 0.612388
lowerback -8.46512 0.208762 -0.727724
upperback -3.29656 0.274894 -1.84179
thorax 1.34034 0.090673 -1.46495
lowerneck -0.475121 -2.51121 -1.95888
upperneck 1.98071 -3.46233 5.22522
head 0.831034 -1.71322 1.93274
rclavicle -6.36111e-015 -1.43125e-014
rhumerus -16.7701 -42.1491 -1.84129
rradius 20.712
rwrist 11.5151
rhand -17.2932 -51.121
rfingers 7.12502
rthumb 8.95243 279.089
lclavicle -6.36111e-015 -1.43125e-014
lhumerus 5.28849 17.455 5.67171
lradius 21.5102
lwrist 7.25412
lhand -13.9988 -5.18357
lfingers 7.12502
lthumb 12.1303 24.4448
rfemur 14.3642 19.8951 6.95995
rtibia -3.91996
rfoot -38.1197 -29.7179
rtoes 31.9927
lfemur 9.30172 -10.1762 -9.23863
ltibia -3.68378
lfoot -196.867 178.384
ltoes 41.5443
729
root 10.8874 18.1793 25.6977 364.026 -82.5989 2.02265
lowerback -8.4593 0.198 -0.946447
upperback -3.31368 0.276584 -1.8961
thorax 1.31847 0.0916498 -1.39789
lowerneck -0.355708 -2.49661 -1.97002
upperneck 1.8495 -3.43565 5.1597
head 0.767173 -1.70317 1.91562
rclavicle 1.37161e-014 -5.56597e-015
rhumerus -17.0084 -46.3634 -1.16618
rradius 20.7474
rwrist 15.7856
rhand -16.6459 -50.8132
rfingers 7.12502
rthumb 9.57703 279.424
lclavicle 1.37161e-014 -5.56597e-015
lhumerus 5.36122 17.6633 5.74152
lradius 21.4338
lwrist 7.06384
lhand -14.0559 -5.3224
lfingers 7.12502
lthumb 12.0752 24.3092
rfemur 14.3625 19.7315 6.86524
rtibia -3.77114
rfoot -37.7478 -29.9218
rtoes 30.1784
lfemur 9.41523 -10.4111 -9.43319
ltibia -3.73011
lfoot -197.245 178.332
ltoes 41.8497
